<mxfile host="app.diagrams.net" modified="2024-03-19T03:51:42.118Z" agent="Mozilla/5.0 (Macintosh; Intel Mac OS X 10_15_7) AppleWebKit/605.1.15 (KHTML, like Gecko) Version/17.4 Safari/605.1.15" version="24.0.7" etag="cWj1239l2rSyLoqB51MT" type="github">
  <diagram name="Page-1" id="XiIsHsZgEiy1qgXBJKxF">
    <mxGraphModel>
      <root>
        <mxCell id="0" />
        <mxCell id="1" parent="0" />
      </root>
    </mxGraphModel>
  </diagram>
</mxfile>
